<svg width="512" height="512" viewBox="0 0 512 512" xmlns="http://www.w3.org/2000/svg">
  <!-- Background Circle -->
  <defs>
    <linearGradient id="bgGradient" x1="0%" y1="0%" x2="100%" y2="100%">
      <stop offset="0%" style="stop-color:#FF0050;stop-opacity:1" />
      <stop offset="50%" style="stop-color:#00F2EA;stop-opacity:1" />
      <stop offset="100%" style="stop-color:#FF0050;stop-opacity:1" />
    </linearGradient>
    <filter id="shadow" x="-50%" y="-50%" width="200%" height="200%">
      <feDropShadow dx="0" dy="4" stdDeviation="8" flood-color="#000000" flood-opacity="0.2"/>
    </filter>
  </defs>
  
  <!-- Main Background -->
  <rect width="512" height="512" rx="120" fill="url(#bgGradient)"/>
  
  <!-- Comment Bubble Icon -->
  <g transform="translate(256, 256)">
    <!-- Main bubble -->
    <path d="M-120 -80 Q-120 -120 -80 -120 L80 -120 Q120 -120 120 -80 L120 20 Q120 60 80 60 L-20 60 L-60 100 L-60 60 L-80 60 Q-120 60 -120 20 Z" 
          fill="white" 
          filter="url(#shadow)"/>
    
    <!-- Message lines -->
    <rect x="-80" y="-80" width="120" height="8" rx="4" fill="#FF0050"/>
    <rect x="-80" y="-50" width="160" height="8" rx="4" fill="#00F2EA"/>
    <rect x="-80" y="-20" width="90" height="8" rx="4" fill="#FF0050"/>
    <rect x="-80" y="10" width="140" height="8" rx="4" fill="#00F2EA"/>
    
    <!-- AI sparkle indicator -->
    <g transform="translate(90, -90)">
      <path d="M0 -15 L3 -3 L15 0 L3 3 L0 15 L-3 3 L-15 0 L-3 -3 Z" fill="#FFD700" opacity="0.9"/>
      <path d="M-20 -25 L-18 -20 L-13 -18 L-18 -16 L-20 -11 L-22 -16 L-27 -18 L-22 -20 Z" fill="#FFD700" opacity="0.7"/>
      <path d="M20 10 L21 7 L24 6 L21 5 L20 2 L19 5 L16 6 L19 7 Z" fill="#FFD700" opacity="0.8"/>
    </g>
  </g>
</svg>